<?xml version="1.0" encoding="utf-8"?>
<!-- Generator: Adobe Illustrator 16.0.0, SVG Export Plug-In . SVG Version: 6.00 Build 0)  -->
<!DOCTYPE svg PUBLIC "-//W3C//DTD SVG 1.1//EN" "http://www.w3.org/Graphics/SVG/1.1/DTD/svg11.dtd">
<svg version="1.1" id="Layer_1" xmlns="http://www.w3.org/2000/svg" xmlns:xlink="http://www.w3.org/1999/xlink" x="0px" y="0px"
	 width="498.262px" height="312.237px" viewBox="0 0 498.262 312.237" enable-background="new 0 0 498.262 312.237"
	 xml:space="preserve">
<path fill="#18B54D" d="M494.608,309.13C494.608,138.263,356.345,0,185.478,0C82.958,0,0,82.958,0,185.478
	C0,253.825,55.306,309.13,123.652,309.13c34.173,0,61.826-27.652,61.826-61.826s-27.653-61.826-61.826-61.826
	c17.087,0,30.913,27.652,30.913,61.826c0,8.543-13.827,15.456-30.914,15.456c-17.086,0-30.912-34.565-30.912-77.282
	c0-17.087,41.479-30.913,92.739-30.913c8.543,0,15.457,6.913,15.457,15.457c0,76.89-6.913,139.108-15.457,139.108H494.608z"/>
<path fill="#CCCCCC" d="M181.346,309.13c0.571,3.854,3.427,2.996,3.427,2.996h307.314c0,0,1.521,1.142,3.926-3.926
	c2.468-5.202,5.042-41.398-4.868-41.398s-285.522,0-291.806,0C187.058,266.802,180.774,305.277,181.346,309.13z"/>
</svg>
